<?xml version="1.0" encoding="UTF-8" standalone="no"?><!DOCTYPE svg PUBLIC "-//W3C//DTD SVG 1.1//EN" "http://www.w3.org/Graphics/SVG/1.1/DTD/svg11.dtd"><svg width="100%" height="100%" viewBox="0 0 1080 1080" version="1.1" xmlns="http://www.w3.org/2000/svg" xmlns:xlink="http://www.w3.org/1999/xlink" xml:space="preserve" xmlns:serif="http://www.serif.com/" style="fill-rule:evenodd;clip-rule:evenodd;stroke-miterlimit:1.5;"><rect id="Artboard71" x="0" y="0" width="1080" height="1080" style="fill:none;"/><clipPath id="_clip1"><rect x="0" y="0" width="1080" height="1080"/></clipPath><g clip-path="url(#_clip1)"><rect x="0" y="-0" width="540" height="302.204" style="fill:#fff;"/><rect x="540" y="-0" width="540" height="302.204" style="fill:#12398c;"/><g><g><path d="M655.268,131.746l2.832,2.832c-4.673,3.751 -7.702,9.759 -7.702,16.524c0,6.765 3.029,12.772 7.702,16.524l-2.832,2.832c-5.391,-4.499 -8.858,-11.499 -8.858,-19.356c-0,-7.857 3.467,-14.857 8.858,-19.356Z" style="fill:#1d9cd4;"/><path d="M660.748,173.852c-1.967,1.154 -4.258,1.815 -6.701,1.815l-20.238,0l-0,-17.268c-0,-2.927 -2.376,-5.303 -5.303,-5.303c-0,-0 -0,-3.988 -0,-3.988c2.927,-0 5.303,-2.377 5.303,-5.304l-0,-17.267l20.238,-0l0.043,-0c2.427,0.007 4.702,0.668 6.658,1.814c2.684,-1.169 5.622,-1.814 8.7,-1.814c7.898,-0 14.874,4.247 19.025,10.715l-2.898,2.899c-3.374,-5.782 -9.338,-9.626 -16.127,-9.626c-1.807,-0 -3.554,0.272 -5.211,0.78c1.928,2.305 3.089,5.274 3.089,8.511c0,4.762 -2.511,8.942 -6.281,11.286c3.77,2.344 6.281,6.524 6.281,11.286c0,3.237 -1.16,6.205 -3.089,8.511c1.657,0.508 3.405,0.78 5.211,0.78c7.787,0 14.49,-5.059 17.443,-12.299l3.017,3.017c-3.838,7.881 -11.564,13.27 -20.46,13.27c-3.078,0 -6.016,-0.645 -8.7,-1.815Zm-22.951,-2.173l0,-13.28c0,-2.958 -1.385,-5.595 -3.542,-7.297c2.157,-1.702 3.542,-4.339 3.542,-7.298l0,-13.279l16.25,-0c5.128,-0 9.291,4.163 9.291,9.291c0,5.128 -4.163,9.292 -9.291,9.292l-0,3.988c5.128,-0 9.291,4.163 9.291,9.292c0,5.117 -4.146,9.274 -9.261,9.291l-0.03,0l-16.25,0Z" style="fill:#fff;"/></g><g><path d="M730.936,158.021c0,-3.377 -1.612,-5.743 -4.838,-7.1c2.713,-1.447 4.07,-3.693 4.07,-6.738c-0,-2.683 -1.071,-4.959 -3.211,-6.828c-2.05,-1.688 -4.431,-2.532 -7.145,-2.532l-13.927,-0l-0,32.603l14.696,0c2.683,0 5.08,-0.874 7.19,-2.622c1.085,-0.905 1.884,-1.915 2.397,-3.03c0.512,-1.116 0.768,-2.367 0.768,-3.753Zm-4.883,-0c-0,1.386 -0.573,2.472 -1.719,3.255c-1.055,0.814 -2.306,1.221 -3.753,1.221l-9.813,0l0,-8.953l9.813,-0c1.447,-0 2.698,0.407 3.753,1.221c1.146,0.844 1.719,1.929 1.719,3.256Zm-0.814,-13.838c-0,1.327 -0.558,2.412 -1.673,3.256c-1.086,0.814 -2.337,1.221 -3.754,1.221l-9.044,-0l0,-8.954l9.044,0c1.417,0 2.668,0.407 3.754,1.221c1.115,0.844 1.673,1.93 1.673,3.256Z" style="fill:#fff;fill-rule:nonzero;"/><path d="M761.686,167.426l0,-24.69l-4.929,0l0,3.346c-2.412,-2.773 -5.411,-4.16 -8.999,-4.16c-1.748,0 -3.369,0.324 -4.861,0.972c-1.492,0.649 -2.811,1.651 -3.957,3.008c-2.351,2.532 -3.527,5.592 -3.527,9.179c0,3.558 1.161,6.602 3.482,9.135c2.352,2.653 5.306,3.979 8.863,3.979c3.648,0 6.648,-1.387 8.999,-4.16l0,3.391l4.929,0Zm-4.929,-12.345c0,2.291 -0.799,4.236 -2.397,5.834c-1.597,1.597 -3.542,2.396 -5.833,2.396c-2.291,0 -4.236,-0.799 -5.833,-2.396c-1.598,-1.598 -2.397,-3.543 -2.397,-5.834c-0,-2.291 0.799,-4.235 2.397,-5.833c1.597,-1.598 3.542,-2.397 5.833,-2.397c2.291,0 4.236,0.799 5.833,2.397c1.598,1.598 2.397,3.542 2.397,5.833Z" style="fill:#fff;fill-rule:nonzero;"/><path d="M789.089,167.426l0,-14.741c0,-2.895 -0.934,-5.367 -2.803,-7.417c-1.899,-2.23 -4.296,-3.346 -7.19,-3.346c-2.623,0 -4.839,0.92 -6.648,2.759l0,-1.945l-4.883,0l-0,24.69l4.883,0l0,-14.741c0,-1.628 0.573,-3.015 1.719,-4.161c1.115,-1.115 2.502,-1.673 4.16,-1.673c1.598,0 2.985,0.558 4.16,1.673c1.116,1.176 1.673,2.563 1.673,4.161l0,14.741l4.929,0Z" style="fill:#fff;fill-rule:nonzero;"/><path d="M815.679,167.426l-0,-24.69l-4.929,0l-0,14.697c-0,1.597 -0.558,2.984 -1.673,4.16c-0.573,0.543 -1.206,0.965 -1.9,1.266c-0.693,0.302 -1.447,0.452 -2.261,0.452c-0.814,0 -1.567,-0.15 -2.261,-0.452c-0.693,-0.301 -1.326,-0.723 -1.899,-1.266c-0.542,-0.573 -0.964,-1.206 -1.266,-1.899c-0.301,-0.694 -0.452,-1.447 -0.452,-2.261l-0,-14.697l-4.884,0l0,14.697c0,2.864 0.92,5.351 2.758,7.461c1.93,2.201 4.327,3.301 7.19,3.301c2.563,0 4.779,-0.904 6.648,-2.713l-0,1.944l4.929,0Z" style="fill:#fff;fill-rule:nonzero;"/><path d="M846.835,167.426l0,-24.69l-4.929,0l0,3.346c-2.411,-2.773 -5.411,-4.16 -8.998,-4.16c-1.749,0 -3.369,0.324 -4.861,0.972c-1.493,0.649 -2.812,1.651 -3.957,3.008c-2.352,2.532 -3.527,5.592 -3.527,9.179c-0,3.558 1.16,6.602 3.482,9.135c2.351,2.653 5.305,3.979 8.863,3.979c3.647,0 6.647,-1.387 8.998,-4.16l0,3.391l4.929,0Zm-4.929,-12.345c0,2.291 -0.798,4.236 -2.396,5.834c-1.598,1.597 -3.542,2.396 -5.834,2.396c-2.291,0 -4.235,-0.799 -5.833,-2.396c-1.598,-1.598 -2.397,-3.543 -2.397,-5.834c0,-2.291 0.799,-4.235 2.397,-5.833c1.598,-1.598 3.542,-2.397 5.833,-2.397c2.292,0 4.236,0.799 5.834,2.397c1.598,1.598 2.396,3.542 2.396,5.833Z" style="fill:#fff;fill-rule:nonzero;"/><path d="M880.886,162.497l-3.165,-3.029c-2.623,2.562 -5.592,3.843 -8.909,3.843c-3.316,0 -6.195,-1.19 -8.637,-3.572c-2.381,-2.442 -3.572,-5.321 -3.572,-8.637c-0,-3.316 1.191,-6.195 3.572,-8.637c2.382,-2.352 5.261,-3.527 8.637,-3.527c3.347,-0 6.316,1.266 8.909,3.798l3.527,-3.346c-3.588,-3.588 -7.733,-5.381 -12.436,-5.381c-4.672,-0 -8.697,1.688 -12.073,5.064c-3.347,3.347 -5.02,7.356 -5.02,12.029c0,4.673 1.658,8.712 4.974,12.119c3.377,3.316 7.417,4.974 12.119,4.974c4.643,0 8.668,-1.673 12.074,-5.019l0,-0.679Z" style="fill:#1d9cd4;fill-rule:nonzero;"/><path d="M911.771,155.081c0,-3.587 -1.296,-6.677 -3.888,-9.27c-2.593,-2.592 -5.683,-3.889 -9.271,-3.889c-3.587,0 -6.662,1.297 -9.224,3.889c-2.593,2.593 -3.889,5.683 -3.889,9.27c-0,3.588 1.296,6.663 3.889,9.225c2.562,2.593 5.637,3.889 9.224,3.889c3.588,0 6.678,-1.296 9.271,-3.889c2.592,-2.562 3.888,-5.637 3.888,-9.225Zm-4.929,0c0,2.291 -0.798,4.236 -2.396,5.834c-1.598,1.597 -3.542,2.396 -5.834,2.396c-2.291,0 -4.235,-0.799 -5.833,-2.396c-1.598,-1.598 -2.397,-3.543 -2.397,-5.834c0,-2.291 0.799,-4.235 2.397,-5.833c1.598,-1.598 3.542,-2.397 5.833,-2.397c2.292,0 4.236,0.799 5.834,2.397c1.598,1.598 2.396,3.542 2.396,5.833Z" style="fill:#1d9cd4;fill-rule:nonzero;"/><path d="M941.933,167.426l0,-32.603l-4.929,-0l0,11.259c-2.411,-2.773 -5.411,-4.16 -8.999,-4.16c-1.748,0 -3.368,0.324 -4.861,0.972c-1.492,0.649 -2.811,1.651 -3.956,3.008c-2.352,2.532 -3.528,5.592 -3.528,9.179c0,3.558 1.161,6.602 3.482,9.135c2.352,2.653 5.306,3.979 8.863,3.979c3.648,0 6.648,-1.387 8.999,-4.16l0,3.391l4.929,0Zm-4.929,-12.345c0,2.291 -0.799,4.236 -2.396,5.834c-1.598,1.597 -3.543,2.396 -5.834,2.396c-2.291,0 -4.235,-0.799 -5.833,-2.396c-1.598,-1.598 -2.397,-3.543 -2.397,-5.834c0,-2.291 0.799,-4.235 2.397,-5.833c1.598,-1.598 3.542,-2.397 5.833,-2.397c2.291,0 4.236,0.799 5.834,2.397c1.597,1.598 2.396,3.542 2.396,5.833Z" style="fill:#1d9cd4;fill-rule:nonzero;"/><path d="M973.09,155.081c-0,-3.587 -1.296,-6.677 -3.889,-9.27c-2.593,-2.592 -5.683,-3.889 -9.27,-3.889c-3.588,0 -6.663,1.297 -9.225,3.889c-2.593,2.593 -3.889,5.683 -3.889,9.27c-0,3.588 1.296,6.663 3.889,9.225c2.562,2.593 5.637,3.889 9.225,3.889c2.05,0 4.017,-0.49 5.901,-1.47c1.884,-0.979 3.49,-2.343 4.816,-4.092l-4.115,-2.668c-1.809,2.231 -4.01,3.346 -6.602,3.346c-1.869,0 -3.573,-0.603 -5.11,-1.809c-1.327,-1.055 -2.231,-2.381 -2.713,-3.979l20.756,0c0.06,-0.512 0.113,-0.965 0.158,-1.356c0.045,-0.392 0.068,-0.754 0.068,-1.086Zm-18.269,-6.466c1.537,-1.176 3.241,-1.764 5.11,-1.764c1.959,0 3.663,0.588 5.11,1.764c1.296,0.995 2.215,2.321 2.758,3.979l-15.691,0c0.482,-1.567 1.386,-2.894 2.713,-3.979Z" style="fill:#1d9cd4;fill-rule:nonzero;"/><path d="M991.494,146.806l0,-4.703c-0.422,-0.06 -0.798,-0.105 -1.13,-0.136c-0.332,-0.03 -0.618,-0.045 -0.859,-0.045c-2.623,0 -4.839,0.92 -6.648,2.759l0,-1.945l-4.883,0l-0,24.69l4.883,0l0,-14.741c0,-1.628 0.573,-3.015 1.719,-4.161c1.115,-1.115 2.502,-1.673 4.16,-1.673c0.693,0 1.402,0.121 2.125,0.362l0.633,-0.407Z" style="fill:#1d9cd4;fill-rule:nonzero;"/></g></g><g><g><path d="M115.268,131.746l2.832,2.832c-4.673,3.751 -7.702,9.759 -7.702,16.524c0,6.765 3.029,12.772 7.702,16.524l-2.832,2.832c-5.391,-4.499 -8.858,-11.499 -8.858,-19.356c-0,-7.857 3.467,-14.857 8.858,-19.356Z" style="fill:#1d9cd4;"/><path d="M120.748,173.852c-1.967,1.154 -4.258,1.815 -6.701,1.815l-20.238,0l-0,-17.268c-0,-2.927 -2.376,-5.303 -5.303,-5.303c-0,-0 -0,-3.988 -0,-3.988c2.927,-0 5.303,-2.377 5.303,-5.304l-0,-17.267l20.238,-0l0.043,-0c2.427,0.007 4.702,0.668 6.658,1.814c2.684,-1.169 5.622,-1.814 8.7,-1.814c7.898,-0 14.874,4.247 19.025,10.715l-2.898,2.899c-3.374,-5.782 -9.338,-9.626 -16.127,-9.626c-1.807,-0 -3.554,0.272 -5.211,0.78c1.928,2.305 3.089,5.274 3.089,8.511c0,4.762 -2.511,8.942 -6.281,11.286c3.77,2.344 6.281,6.524 6.281,11.286c0,3.237 -1.16,6.205 -3.089,8.511c1.657,0.508 3.405,0.78 5.211,0.78c7.787,0 14.49,-5.059 17.443,-12.299l3.017,3.017c-3.838,7.881 -11.564,13.27 -20.46,13.27c-3.078,0 -6.016,-0.645 -8.7,-1.815Zm-22.951,-2.173l0,-13.28c0,-2.958 -1.385,-5.595 -3.542,-7.297c2.157,-1.702 3.542,-4.339 3.542,-7.298l0,-13.279l16.25,-0c5.128,-0 9.291,4.163 9.291,9.291c0,5.128 -4.163,9.292 -9.291,9.292l-0,3.988c5.128,-0 9.291,4.163 9.291,9.292c0,5.117 -4.146,9.274 -9.261,9.291l-0.03,0l-16.25,0Z" style="fill:#12398c;"/></g><g><path d="M190.936,158.021c0,-3.377 -1.612,-5.743 -4.838,-7.1c2.713,-1.447 4.07,-3.693 4.07,-6.738c-0,-2.683 -1.071,-4.959 -3.211,-6.828c-2.05,-1.688 -4.431,-2.532 -7.145,-2.532l-13.927,-0l-0,32.603l14.696,0c2.683,0 5.08,-0.874 7.19,-2.622c1.085,-0.905 1.884,-1.915 2.397,-3.03c0.512,-1.116 0.768,-2.367 0.768,-3.753Zm-4.883,-0c-0,1.386 -0.573,2.472 -1.719,3.255c-1.055,0.814 -2.306,1.221 -3.753,1.221l-9.813,0l0,-8.953l9.813,-0c1.447,-0 2.698,0.407 3.753,1.221c1.146,0.844 1.719,1.929 1.719,3.256Zm-0.814,-13.838c-0,1.327 -0.558,2.412 -1.673,3.256c-1.086,0.814 -2.337,1.221 -3.754,1.221l-9.044,-0l0,-8.954l9.044,0c1.417,0 2.668,0.407 3.754,1.221c1.115,0.844 1.673,1.93 1.673,3.256Z" style="fill:#12398c;fill-rule:nonzero;"/><path d="M221.686,167.426l0,-24.69l-4.929,0l0,3.346c-2.412,-2.773 -5.411,-4.16 -8.999,-4.16c-1.748,0 -3.369,0.324 -4.861,0.972c-1.492,0.649 -2.811,1.651 -3.957,3.008c-2.351,2.532 -3.527,5.592 -3.527,9.179c0,3.558 1.161,6.602 3.482,9.135c2.352,2.653 5.306,3.979 8.863,3.979c3.648,0 6.648,-1.387 8.999,-4.16l0,3.391l4.929,0Zm-4.929,-12.345c0,2.291 -0.799,4.236 -2.397,5.834c-1.597,1.597 -3.542,2.396 -5.833,2.396c-2.291,0 -4.236,-0.799 -5.833,-2.396c-1.598,-1.598 -2.397,-3.543 -2.397,-5.834c-0,-2.291 0.799,-4.235 2.397,-5.833c1.597,-1.598 3.542,-2.397 5.833,-2.397c2.291,0 4.236,0.799 5.833,2.397c1.598,1.598 2.397,3.542 2.397,5.833Z" style="fill:#12398c;fill-rule:nonzero;"/><path d="M249.089,167.426l0,-14.741c0,-2.895 -0.934,-5.367 -2.803,-7.417c-1.899,-2.23 -4.296,-3.346 -7.19,-3.346c-2.623,0 -4.839,0.92 -6.648,2.759l0,-1.945l-4.883,0l-0,24.69l4.883,0l0,-14.741c0,-1.628 0.573,-3.015 1.719,-4.161c1.115,-1.115 2.502,-1.673 4.16,-1.673c1.598,0 2.985,0.558 4.16,1.673c1.116,1.176 1.673,2.563 1.673,4.161l0,14.741l4.929,0Z" style="fill:#12398c;fill-rule:nonzero;"/><path d="M275.679,167.426l-0,-24.69l-4.929,0l-0,14.697c-0,1.597 -0.558,2.984 -1.673,4.16c-0.573,0.543 -1.206,0.965 -1.9,1.266c-0.693,0.302 -1.447,0.452 -2.261,0.452c-0.814,0 -1.567,-0.15 -2.261,-0.452c-0.693,-0.301 -1.326,-0.723 -1.899,-1.266c-0.542,-0.573 -0.964,-1.206 -1.266,-1.899c-0.301,-0.694 -0.452,-1.447 -0.452,-2.261l-0,-14.697l-4.884,0l0,14.697c0,2.864 0.92,5.351 2.758,7.461c1.93,2.201 4.327,3.301 7.19,3.301c2.563,0 4.779,-0.904 6.648,-2.713l-0,1.944l4.929,0Z" style="fill:#12398c;fill-rule:nonzero;"/><path d="M306.835,167.426l0,-24.69l-4.929,0l0,3.346c-2.411,-2.773 -5.411,-4.16 -8.998,-4.16c-1.749,0 -3.369,0.324 -4.861,0.972c-1.493,0.649 -2.812,1.651 -3.957,3.008c-2.352,2.532 -3.527,5.592 -3.527,9.179c-0,3.558 1.16,6.602 3.482,9.135c2.351,2.653 5.305,3.979 8.863,3.979c3.647,0 6.647,-1.387 8.998,-4.16l0,3.391l4.929,0Zm-4.929,-12.345c0,2.291 -0.798,4.236 -2.396,5.834c-1.598,1.597 -3.542,2.396 -5.834,2.396c-2.291,0 -4.235,-0.799 -5.833,-2.396c-1.598,-1.598 -2.397,-3.543 -2.397,-5.834c0,-2.291 0.799,-4.235 2.397,-5.833c1.598,-1.598 3.542,-2.397 5.833,-2.397c2.292,0 4.236,0.799 5.834,2.397c1.598,1.598 2.396,3.542 2.396,5.833Z" style="fill:#12398c;fill-rule:nonzero;"/><path d="M340.886,162.497l-3.165,-3.029c-2.623,2.562 -5.592,3.843 -8.909,3.843c-3.316,0 -6.195,-1.19 -8.637,-3.572c-2.381,-2.442 -3.572,-5.321 -3.572,-8.637c-0,-3.316 1.191,-6.195 3.572,-8.637c2.382,-2.352 5.261,-3.527 8.637,-3.527c3.347,-0 6.316,1.266 8.909,3.798l3.527,-3.346c-3.588,-3.588 -7.733,-5.381 -12.436,-5.381c-4.672,-0 -8.697,1.688 -12.073,5.064c-3.347,3.347 -5.02,7.356 -5.02,12.029c0,4.673 1.658,8.712 4.974,12.119c3.377,3.316 7.417,4.974 12.119,4.974c4.643,0 8.668,-1.673 12.074,-5.019l0,-0.679Z" style="fill:#1d9cd4;fill-rule:nonzero;"/><path d="M371.771,155.081c0,-3.587 -1.296,-6.677 -3.888,-9.27c-2.593,-2.592 -5.683,-3.889 -9.271,-3.889c-3.587,0 -6.662,1.297 -9.224,3.889c-2.593,2.593 -3.889,5.683 -3.889,9.27c-0,3.588 1.296,6.663 3.889,9.225c2.562,2.593 5.637,3.889 9.224,3.889c3.588,0 6.678,-1.296 9.271,-3.889c2.592,-2.562 3.888,-5.637 3.888,-9.225Zm-4.929,0c0,2.291 -0.798,4.236 -2.396,5.834c-1.598,1.597 -3.542,2.396 -5.834,2.396c-2.291,0 -4.235,-0.799 -5.833,-2.396c-1.598,-1.598 -2.397,-3.543 -2.397,-5.834c0,-2.291 0.799,-4.235 2.397,-5.833c1.598,-1.598 3.542,-2.397 5.833,-2.397c2.292,0 4.236,0.799 5.834,2.397c1.598,1.598 2.396,3.542 2.396,5.833Z" style="fill:#1d9cd4;fill-rule:nonzero;"/><path d="M401.933,167.426l0,-32.603l-4.929,-0l0,11.259c-2.411,-2.773 -5.411,-4.16 -8.999,-4.16c-1.748,0 -3.368,0.324 -4.861,0.972c-1.492,0.649 -2.811,1.651 -3.956,3.008c-2.352,2.532 -3.528,5.592 -3.528,9.179c0,3.558 1.161,6.602 3.482,9.135c2.352,2.653 5.306,3.979 8.863,3.979c3.648,0 6.648,-1.387 8.999,-4.16l0,3.391l4.929,0Zm-4.929,-12.345c0,2.291 -0.799,4.236 -2.396,5.834c-1.598,1.597 -3.543,2.396 -5.834,2.396c-2.291,0 -4.235,-0.799 -5.833,-2.396c-1.598,-1.598 -2.397,-3.543 -2.397,-5.834c0,-2.291 0.799,-4.235 2.397,-5.833c1.598,-1.598 3.542,-2.397 5.833,-2.397c2.291,0 4.236,0.799 5.834,2.397c1.597,1.598 2.396,3.542 2.396,5.833Z" style="fill:#1d9cd4;fill-rule:nonzero;"/><path d="M433.09,155.081c-0,-3.587 -1.296,-6.677 -3.889,-9.27c-2.593,-2.592 -5.683,-3.889 -9.27,-3.889c-3.588,0 -6.663,1.297 -9.225,3.889c-2.593,2.593 -3.889,5.683 -3.889,9.27c-0,3.588 1.296,6.663 3.889,9.225c2.562,2.593 5.637,3.889 9.225,3.889c2.05,0 4.017,-0.49 5.901,-1.47c1.884,-0.979 3.49,-2.343 4.816,-4.092l-4.115,-2.668c-1.809,2.231 -4.01,3.346 -6.602,3.346c-1.869,0 -3.573,-0.603 -5.11,-1.809c-1.327,-1.055 -2.231,-2.381 -2.713,-3.979l20.756,0c0.06,-0.512 0.113,-0.965 0.158,-1.356c0.045,-0.392 0.068,-0.754 0.068,-1.086Zm-18.269,-6.466c1.537,-1.176 3.241,-1.764 5.11,-1.764c1.959,0 3.663,0.588 5.11,1.764c1.296,0.995 2.215,2.321 2.758,3.979l-15.691,0c0.482,-1.567 1.386,-2.894 2.713,-3.979Z" style="fill:#1d9cd4;fill-rule:nonzero;"/><path d="M451.494,146.806l0,-4.703c-0.422,-0.06 -0.798,-0.105 -1.13,-0.136c-0.332,-0.03 -0.618,-0.045 -0.859,-0.045c-2.623,0 -4.839,0.92 -6.648,2.759l0,-1.945l-4.883,0l-0,24.69l4.883,0l0,-14.741c0,-1.628 0.573,-3.015 1.719,-4.161c1.115,-1.115 2.502,-1.673 4.16,-1.673c0.693,0 1.402,0.121 2.125,0.362l0.633,-0.407Z" style="fill:#1d9cd4;fill-rule:nonzero;"/></g></g><rect x="-0" y="302.204" width="540" height="270" style="fill:#12398c;"/><rect x="540" y="302.204" width="540" height="270" style="fill:#fff;"/><g><g><path d="M805.799,395.139l3.02,3.021c-4.984,4.002 -8.215,10.409 -8.215,17.626c0,7.216 3.231,13.623 8.215,17.625l-3.02,3.021c-5.751,-4.799 -9.449,-12.266 -9.449,-20.646c0,-8.381 3.698,-15.848 9.449,-20.647Z" style="fill:#1d9cd4;"/><path d="M811.644,440.053c-2.098,1.23 -4.541,1.935 -7.148,1.935l-21.586,0l-0,-18.419c-0,-3.122 -2.535,-5.656 -5.657,-5.656c-0,-0 -0,-4.254 -0,-4.254c3.122,-0 5.657,-2.535 5.657,-5.657l-0,-18.419l21.586,0l0.046,0c2.59,0.009 5.016,0.713 7.102,1.936c2.863,-1.248 5.997,-1.936 9.28,-1.936c8.425,0 15.865,4.531 20.293,11.43l-3.091,3.092c-3.599,-6.168 -9.961,-10.268 -17.202,-10.268c-1.927,0 -3.791,0.29 -5.558,0.833c2.057,2.458 3.295,5.625 3.295,9.078c0,5.079 -2.679,9.537 -6.7,12.038c4.021,2.5 6.7,6.958 6.7,12.037c0,3.454 -1.238,6.62 -3.295,9.079c1.767,0.542 3.631,0.832 5.558,0.832c8.306,0 15.456,-5.395 18.605,-13.118l3.218,3.218c-4.093,8.406 -12.334,14.154 -21.823,14.154c-3.283,0 -6.417,-0.688 -9.28,-1.935Zm-24.48,-2.319l-0,-14.165c-0,-3.155 -1.478,-5.968 -3.779,-7.783c2.301,-1.815 3.779,-4.629 3.779,-7.784l-0,-14.165l17.332,0c5.47,0 9.911,4.441 9.911,9.911c0,5.47 -4.441,9.911 -9.911,9.911l0,4.254c5.47,-0 9.911,4.441 9.911,9.91c0,5.459 -4.423,9.894 -9.879,9.911l-0.032,0l-17.332,0Z" style="fill:#12398c;"/></g><g><path d="M721.635,477.189c0,-2.534 -1.21,-4.309 -3.631,-5.327c2.036,-1.086 3.054,-2.772 3.054,-5.057c0,-2.013 -0.803,-3.721 -2.409,-5.124c-1.538,-1.267 -3.326,-1.9 -5.362,-1.9l-10.451,-0l-0,24.467l11.028,-0c2.014,-0 3.812,-0.656 5.396,-1.969c0.814,-0.678 1.414,-1.436 1.798,-2.273c0.385,-0.837 0.577,-1.776 0.577,-2.817Zm-3.665,0c0,1.041 -0.43,1.855 -1.289,2.444c-0.792,0.61 -1.731,0.916 -2.817,0.916l-7.364,-0l0,-6.719l7.364,-0c1.086,-0 2.025,0.305 2.817,0.916c0.859,0.633 1.289,1.448 1.289,2.443Zm-0.611,-10.384c0,0.996 -0.418,1.81 -1.255,2.444c-0.815,0.61 -1.753,0.916 -2.817,0.916l-6.787,-0l0,-6.719l6.787,-0c1.064,-0 2.002,0.305 2.817,0.916c0.837,0.634 1.255,1.448 1.255,2.443Z" style="fill:#12398c;fill-rule:nonzero;"/><path d="M744.71,484.248l0,-18.529l-3.698,0l-0,2.512c-1.81,-2.082 -4.061,-3.122 -6.753,-3.122c-1.312,-0 -2.528,0.243 -3.648,0.729c-1.12,0.487 -2.11,1.239 -2.969,2.257c-1.765,1.9 -2.647,4.196 -2.647,6.889c-0,2.669 0.871,4.954 2.613,6.854c1.764,1.991 3.981,2.986 6.651,2.986c2.737,0 4.988,-1.04 6.753,-3.121l-0,2.545l3.698,-0Zm-3.698,-9.264c-0,1.719 -0.6,3.178 -1.799,4.377c-1.199,1.199 -2.658,1.799 -4.377,1.799c-1.72,-0 -3.179,-0.6 -4.378,-1.799c-1.199,-1.199 -1.798,-2.658 -1.798,-4.377c-0,-1.72 0.599,-3.179 1.798,-4.378c1.199,-1.199 2.658,-1.799 4.378,-1.799c1.719,0 3.178,0.6 4.377,1.799c1.199,1.199 1.799,2.658 1.799,4.378Z" style="fill:#12398c;fill-rule:nonzero;"/><path d="M765.275,484.248l-0,-11.063c-0,-2.172 -0.702,-4.027 -2.104,-5.565c-1.426,-1.674 -3.224,-2.511 -5.396,-2.511c-1.968,-0 -3.631,0.69 -4.988,2.07l-0,-1.46l-3.665,0l-0,18.529l3.665,-0l-0,-11.063c-0,-1.222 0.43,-2.262 1.289,-3.122c0.837,-0.837 1.878,-1.256 3.122,-1.256c1.199,0 2.24,0.419 3.122,1.256c0.837,0.882 1.256,1.923 1.256,3.122l-0,11.063l3.699,-0Z" style="fill:#12398c;fill-rule:nonzero;"/><path d="M785.228,484.248l-0,-18.529l-3.699,0l0,11.029c0,1.199 -0.418,2.24 -1.255,3.122c-0.43,0.407 -0.905,0.724 -1.426,0.95c-0.52,0.226 -1.086,0.34 -1.696,0.34c-0.611,-0 -1.177,-0.114 -1.697,-0.34c-0.52,-0.226 -0.995,-0.543 -1.425,-0.95c-0.408,-0.43 -0.724,-0.905 -0.95,-1.425c-0.227,-0.521 -0.34,-1.086 -0.34,-1.697l0,-11.029l-3.665,0l0,11.029c0,2.149 0.69,4.016 2.07,5.599c1.448,1.652 3.247,2.477 5.396,2.477c1.923,0 3.586,-0.678 4.988,-2.036l0,1.46l3.699,-0Z" style="fill:#12398c;fill-rule:nonzero;"/><path d="M808.609,484.248l-0,-18.529l-3.699,0l-0,2.512c-1.81,-2.082 -4.061,-3.122 -6.753,-3.122c-1.312,-0 -2.528,0.243 -3.648,0.729c-1.12,0.487 -2.11,1.239 -2.969,2.257c-1.765,1.9 -2.647,4.196 -2.647,6.889c-0,2.669 0.871,4.954 2.613,6.854c1.764,1.991 3.981,2.986 6.651,2.986c2.737,0 4.988,-1.04 6.753,-3.121l-0,2.545l3.699,-0Zm-3.699,-9.264c-0,1.719 -0.6,3.178 -1.799,4.377c-1.199,1.199 -2.658,1.799 -4.377,1.799c-1.72,-0 -3.179,-0.6 -4.378,-1.799c-1.199,-1.199 -1.798,-2.658 -1.798,-4.377c-0,-1.72 0.599,-3.179 1.798,-4.378c1.199,-1.199 2.658,-1.799 4.378,-1.799c1.719,0 3.178,0.6 4.377,1.799c1.199,1.199 1.799,2.658 1.799,4.378Z" style="fill:#12398c;fill-rule:nonzero;"/><path d="M834.161,480.549l-2.375,-2.274c-1.968,1.923 -4.197,2.885 -6.685,2.885c-2.489,-0 -4.649,-0.894 -6.482,-2.681c-1.787,-1.833 -2.681,-3.993 -2.681,-6.482c0,-2.488 0.894,-4.649 2.681,-6.481c1.788,-1.765 3.948,-2.647 6.482,-2.647c2.511,-0 4.739,0.95 6.685,2.85l2.647,-2.511c-2.692,-2.692 -5.803,-4.038 -9.332,-4.038c-3.507,0 -6.527,1.267 -9.061,3.801c-2.511,2.511 -3.766,5.52 -3.766,9.026c-0,3.507 1.244,6.538 3.732,9.095c2.534,2.488 5.566,3.732 9.095,3.732c3.484,0 6.504,-1.255 9.06,-3.766l0,-0.509Z" style="fill:#1d9cd4;fill-rule:nonzero;"/><path d="M857.338,474.984c0,-2.693 -0.972,-5.011 -2.918,-6.957c-1.946,-1.946 -4.264,-2.918 -6.957,-2.918c-2.692,-0 -4.999,0.972 -6.922,2.918c-1.946,1.946 -2.919,4.264 -2.919,6.957c0,2.692 0.973,4.999 2.919,6.922c1.923,1.946 4.23,2.918 6.922,2.918c2.693,0 5.011,-0.972 6.957,-2.918c1.946,-1.923 2.918,-4.23 2.918,-6.922Zm-3.699,-0c0,1.719 -0.599,3.178 -1.798,4.377c-1.199,1.199 -2.658,1.799 -4.378,1.799c-1.719,-0 -3.178,-0.6 -4.377,-1.799c-1.199,-1.199 -1.799,-2.658 -1.799,-4.377c0,-1.72 0.6,-3.179 1.799,-4.378c1.199,-1.199 2.658,-1.799 4.377,-1.799c1.72,0 3.179,0.6 4.378,1.799c1.199,1.199 1.798,2.658 1.798,4.378Z" style="fill:#1d9cd4;fill-rule:nonzero;"/><path d="M879.972,484.248l0,-24.467l-3.698,-0l-0,8.45c-1.81,-2.082 -4.061,-3.122 -6.753,-3.122c-1.312,-0 -2.528,0.243 -3.648,0.729c-1.12,0.487 -2.11,1.239 -2.969,2.257c-1.765,1.9 -2.647,4.196 -2.647,6.889c-0,2.669 0.871,4.954 2.613,6.854c1.764,1.991 3.981,2.986 6.651,2.986c2.737,0 4.988,-1.04 6.753,-3.121l-0,2.545l3.698,-0Zm-3.698,-9.264c-0,1.719 -0.6,3.178 -1.799,4.377c-1.199,1.199 -2.658,1.799 -4.377,1.799c-1.72,-0 -3.179,-0.6 -4.378,-1.799c-1.199,-1.199 -1.798,-2.658 -1.798,-4.377c-0,-1.72 0.599,-3.179 1.798,-4.378c1.199,-1.199 2.658,-1.799 4.378,-1.799c1.719,0 3.178,0.6 4.377,1.799c1.199,1.199 1.799,2.658 1.799,4.378Z" style="fill:#1d9cd4;fill-rule:nonzero;"/><path d="M903.353,474.984c0,-2.693 -0.973,-5.011 -2.918,-6.957c-1.946,-1.946 -4.265,-2.918 -6.957,-2.918c-2.692,-0 -4.999,0.972 -6.922,2.918c-1.946,1.946 -2.919,4.264 -2.919,6.957c0,2.692 0.973,4.999 2.919,6.922c1.923,1.946 4.23,2.918 6.922,2.918c1.539,0 3.015,-0.367 4.429,-1.102c1.414,-0.736 2.618,-1.759 3.614,-3.071l-3.088,-2.003c-1.358,1.675 -3.009,2.512 -4.955,2.512c-1.402,-0 -2.681,-0.453 -3.834,-1.358c-0.996,-0.792 -1.674,-1.787 -2.036,-2.986l15.575,-0c0.046,-0.385 0.085,-0.724 0.119,-1.018c0.034,-0.294 0.051,-0.566 0.051,-0.814Zm-13.709,-4.853c1.153,-0.882 2.432,-1.324 3.834,-1.324c1.471,0 2.749,0.442 3.835,1.324c0.973,0.746 1.663,1.742 2.07,2.986l-11.775,0c0.362,-1.176 1.04,-2.172 2.036,-2.986Z" style="fill:#1d9cd4;fill-rule:nonzero;"/><path d="M917.164,468.774l0,-3.53c-0.316,-0.045 -0.599,-0.079 -0.848,-0.101c-0.249,-0.023 -0.464,-0.034 -0.645,-0.034c-1.968,-0 -3.631,0.69 -4.988,2.07l-0,-1.46l-3.665,0l0,18.529l3.665,-0l-0,-11.063c-0,-1.222 0.43,-2.262 1.289,-3.122c0.838,-0.837 1.878,-1.256 3.122,-1.256c0.521,0 1.052,0.091 1.595,0.272l0.475,-0.305Z" style="fill:#1d9cd4;fill-rule:nonzero;"/></g></g><g><g><path d="M265.799,395.139l3.02,3.021c-4.984,4.002 -8.215,10.409 -8.215,17.626c0,7.216 3.231,13.623 8.215,17.625l-3.02,3.021c-5.751,-4.799 -9.449,-12.266 -9.449,-20.646c0,-8.381 3.698,-15.848 9.449,-20.647Z" style="fill:#1d9cd4;"/><path d="M271.644,440.053c-2.098,1.23 -4.541,1.935 -7.148,1.935l-21.586,0l-0,-18.419c-0,-3.122 -2.535,-5.656 -5.657,-5.656c-0,-0 -0,-4.254 -0,-4.254c3.122,-0 5.657,-2.535 5.657,-5.657l-0,-18.419l21.586,0l0.046,0c2.59,0.009 5.016,0.713 7.102,1.936c2.863,-1.248 5.997,-1.936 9.28,-1.936c8.425,0 15.865,4.531 20.293,11.43l-3.091,3.092c-3.599,-6.168 -9.961,-10.268 -17.202,-10.268c-1.927,0 -3.791,0.29 -5.558,0.833c2.057,2.458 3.295,5.625 3.295,9.078c0,5.079 -2.679,9.537 -6.7,12.038c4.021,2.5 6.7,6.958 6.7,12.037c0,3.454 -1.238,6.62 -3.295,9.079c1.767,0.542 3.631,0.832 5.558,0.832c8.306,0 15.456,-5.395 18.605,-13.118l3.218,3.218c-4.093,8.406 -12.334,14.154 -21.823,14.154c-3.283,0 -6.417,-0.688 -9.28,-1.935Zm-24.48,-2.319l-0,-14.165c-0,-3.155 -1.478,-5.968 -3.779,-7.783c2.301,-1.815 3.779,-4.629 3.779,-7.784l-0,-14.165l17.332,0c5.47,0 9.911,4.441 9.911,9.911c0,5.47 -4.441,9.911 -9.911,9.911l0,4.254c5.47,-0 9.911,4.441 9.911,9.91c0,5.459 -4.423,9.894 -9.879,9.911l-0.032,0l-17.332,0Z" style="fill:#fff;"/></g><g><path d="M181.635,477.189c0,-2.534 -1.21,-4.309 -3.631,-5.327c2.036,-1.086 3.054,-2.772 3.054,-5.057c0,-2.013 -0.803,-3.721 -2.409,-5.124c-1.538,-1.267 -3.326,-1.9 -5.362,-1.9l-10.451,-0l-0,24.467l11.028,-0c2.014,-0 3.812,-0.656 5.396,-1.969c0.814,-0.678 1.414,-1.436 1.798,-2.273c0.385,-0.837 0.577,-1.776 0.577,-2.817Zm-3.665,0c0,1.041 -0.43,1.855 -1.289,2.444c-0.792,0.61 -1.731,0.916 -2.817,0.916l-7.364,-0l0,-6.719l7.364,-0c1.086,-0 2.025,0.305 2.817,0.916c0.859,0.633 1.289,1.448 1.289,2.443Zm-0.611,-10.384c0,0.996 -0.418,1.81 -1.255,2.444c-0.815,0.61 -1.753,0.916 -2.817,0.916l-6.787,-0l0,-6.719l6.787,-0c1.064,-0 2.002,0.305 2.817,0.916c0.837,0.634 1.255,1.448 1.255,2.443Z" style="fill:#fff;fill-rule:nonzero;"/><path d="M204.71,484.248l0,-18.529l-3.698,0l-0,2.512c-1.81,-2.082 -4.061,-3.122 -6.753,-3.122c-1.312,-0 -2.528,0.243 -3.648,0.729c-1.12,0.487 -2.11,1.239 -2.969,2.257c-1.765,1.9 -2.647,4.196 -2.647,6.889c-0,2.669 0.871,4.954 2.613,6.854c1.764,1.991 3.981,2.986 6.651,2.986c2.737,0 4.988,-1.04 6.753,-3.121l-0,2.545l3.698,-0Zm-3.698,-9.264c-0,1.719 -0.6,3.178 -1.799,4.377c-1.199,1.199 -2.658,1.799 -4.377,1.799c-1.72,-0 -3.179,-0.6 -4.378,-1.799c-1.199,-1.199 -1.798,-2.658 -1.798,-4.377c-0,-1.72 0.599,-3.179 1.798,-4.378c1.199,-1.199 2.658,-1.799 4.378,-1.799c1.719,0 3.178,0.6 4.377,1.799c1.199,1.199 1.799,2.658 1.799,4.378Z" style="fill:#fff;fill-rule:nonzero;"/><path d="M225.275,484.248l-0,-11.063c-0,-2.172 -0.702,-4.027 -2.104,-5.565c-1.426,-1.674 -3.224,-2.511 -5.396,-2.511c-1.968,-0 -3.631,0.69 -4.988,2.07l-0,-1.46l-3.665,0l-0,18.529l3.665,-0l-0,-11.063c-0,-1.222 0.43,-2.262 1.289,-3.122c0.837,-0.837 1.878,-1.256 3.122,-1.256c1.199,0 2.24,0.419 3.122,1.256c0.837,0.882 1.256,1.923 1.256,3.122l-0,11.063l3.699,-0Z" style="fill:#fff;fill-rule:nonzero;"/><path d="M245.228,484.248l-0,-18.529l-3.699,0l0,11.029c0,1.199 -0.418,2.24 -1.255,3.122c-0.43,0.407 -0.905,0.724 -1.426,0.95c-0.52,0.226 -1.086,0.34 -1.696,0.34c-0.611,-0 -1.177,-0.114 -1.697,-0.34c-0.52,-0.226 -0.995,-0.543 -1.425,-0.95c-0.408,-0.43 -0.724,-0.905 -0.95,-1.425c-0.227,-0.521 -0.34,-1.086 -0.34,-1.697l0,-11.029l-3.665,0l0,11.029c0,2.149 0.69,4.016 2.07,5.599c1.448,1.652 3.247,2.477 5.396,2.477c1.923,0 3.586,-0.678 4.988,-2.036l0,1.46l3.699,-0Z" style="fill:#fff;fill-rule:nonzero;"/><path d="M268.609,484.248l-0,-18.529l-3.699,0l-0,2.512c-1.81,-2.082 -4.061,-3.122 -6.753,-3.122c-1.312,-0 -2.528,0.243 -3.648,0.729c-1.12,0.487 -2.11,1.239 -2.969,2.257c-1.765,1.9 -2.647,4.196 -2.647,6.889c-0,2.669 0.871,4.954 2.613,6.854c1.764,1.991 3.981,2.986 6.651,2.986c2.737,0 4.988,-1.04 6.753,-3.121l-0,2.545l3.699,-0Zm-3.699,-9.264c-0,1.719 -0.6,3.178 -1.799,4.377c-1.199,1.199 -2.658,1.799 -4.377,1.799c-1.72,-0 -3.179,-0.6 -4.378,-1.799c-1.199,-1.199 -1.798,-2.658 -1.798,-4.377c-0,-1.72 0.599,-3.179 1.798,-4.378c1.199,-1.199 2.658,-1.799 4.378,-1.799c1.719,0 3.178,0.6 4.377,1.799c1.199,1.199 1.799,2.658 1.799,4.378Z" style="fill:#fff;fill-rule:nonzero;"/><path d="M294.161,480.549l-2.375,-2.274c-1.968,1.923 -4.197,2.885 -6.685,2.885c-2.489,-0 -4.649,-0.894 -6.482,-2.681c-1.787,-1.833 -2.681,-3.993 -2.681,-6.482c0,-2.488 0.894,-4.649 2.681,-6.481c1.788,-1.765 3.948,-2.647 6.482,-2.647c2.511,-0 4.739,0.95 6.685,2.85l2.647,-2.511c-2.692,-2.692 -5.803,-4.038 -9.332,-4.038c-3.507,0 -6.527,1.267 -9.061,3.801c-2.511,2.511 -3.766,5.52 -3.766,9.026c-0,3.507 1.244,6.538 3.732,9.095c2.534,2.488 5.566,3.732 9.095,3.732c3.484,0 6.504,-1.255 9.06,-3.766l0,-0.509Z" style="fill:#1d9cd4;fill-rule:nonzero;"/><path d="M317.338,474.984c0,-2.693 -0.972,-5.011 -2.918,-6.957c-1.946,-1.946 -4.264,-2.918 -6.957,-2.918c-2.692,-0 -4.999,0.972 -6.922,2.918c-1.946,1.946 -2.919,4.264 -2.919,6.957c0,2.692 0.973,4.999 2.919,6.922c1.923,1.946 4.23,2.918 6.922,2.918c2.693,0 5.011,-0.972 6.957,-2.918c1.946,-1.923 2.918,-4.23 2.918,-6.922Zm-3.699,-0c0,1.719 -0.599,3.178 -1.798,4.377c-1.199,1.199 -2.658,1.799 -4.378,1.799c-1.719,-0 -3.178,-0.6 -4.377,-1.799c-1.199,-1.199 -1.799,-2.658 -1.799,-4.377c0,-1.72 0.6,-3.179 1.799,-4.378c1.199,-1.199 2.658,-1.799 4.377,-1.799c1.72,0 3.179,0.6 4.378,1.799c1.199,1.199 1.798,2.658 1.798,4.378Z" style="fill:#1d9cd4;fill-rule:nonzero;"/><path d="M339.972,484.248l0,-24.467l-3.698,-0l-0,8.45c-1.81,-2.082 -4.061,-3.122 -6.753,-3.122c-1.312,-0 -2.528,0.243 -3.648,0.729c-1.12,0.487 -2.11,1.239 -2.969,2.257c-1.765,1.9 -2.647,4.196 -2.647,6.889c-0,2.669 0.871,4.954 2.613,6.854c1.764,1.991 3.981,2.986 6.651,2.986c2.737,0 4.988,-1.04 6.753,-3.121l-0,2.545l3.698,-0Zm-3.698,-9.264c-0,1.719 -0.6,3.178 -1.799,4.377c-1.199,1.199 -2.658,1.799 -4.377,1.799c-1.72,-0 -3.179,-0.6 -4.378,-1.799c-1.199,-1.199 -1.798,-2.658 -1.798,-4.377c-0,-1.72 0.599,-3.179 1.798,-4.378c1.199,-1.199 2.658,-1.799 4.378,-1.799c1.719,0 3.178,0.6 4.377,1.799c1.199,1.199 1.799,2.658 1.799,4.378Z" style="fill:#1d9cd4;fill-rule:nonzero;"/><path d="M363.353,474.984c0,-2.693 -0.973,-5.011 -2.918,-6.957c-1.946,-1.946 -4.265,-2.918 -6.957,-2.918c-2.692,-0 -4.999,0.972 -6.922,2.918c-1.946,1.946 -2.919,4.264 -2.919,6.957c0,2.692 0.973,4.999 2.919,6.922c1.923,1.946 4.23,2.918 6.922,2.918c1.539,0 3.015,-0.367 4.429,-1.102c1.414,-0.736 2.618,-1.759 3.614,-3.071l-3.088,-2.003c-1.358,1.675 -3.009,2.512 -4.955,2.512c-1.402,-0 -2.681,-0.453 -3.834,-1.358c-0.996,-0.792 -1.674,-1.787 -2.036,-2.986l15.575,-0c0.046,-0.385 0.085,-0.724 0.119,-1.018c0.034,-0.294 0.051,-0.566 0.051,-0.814Zm-13.709,-4.853c1.153,-0.882 2.432,-1.324 3.834,-1.324c1.471,0 2.749,0.442 3.835,1.324c0.973,0.746 1.663,1.742 2.07,2.986l-11.775,0c0.362,-1.176 1.04,-2.172 2.036,-2.986Z" style="fill:#1d9cd4;fill-rule:nonzero;"/><path d="M377.164,468.774l0,-3.53c-0.316,-0.045 -0.599,-0.079 -0.848,-0.101c-0.249,-0.023 -0.464,-0.034 -0.645,-0.034c-1.968,-0 -3.631,0.69 -4.988,2.07l-0,-1.46l-3.665,0l0,18.529l3.665,-0l-0,-11.063c-0,-1.222 0.43,-2.262 1.289,-3.122c0.838,-0.837 1.878,-1.256 3.122,-1.256c0.521,0 1.052,0.091 1.595,0.272l0.475,-0.305Z" style="fill:#1d9cd4;fill-rule:nonzero;"/></g></g><path d="M945.259,752.525c-0,-17.095 -6.791,-33.489 -18.879,-45.577c-12.088,-12.088 -28.482,-18.879 -45.577,-18.879c-35.227,0 -78.727,0 -113.954,0c-17.095,0 -33.489,6.791 -45.577,18.879c-12.088,12.088 -18.879,28.482 -18.879,45.577l0,113.954c0,17.094 6.791,33.489 18.879,45.577c12.088,12.088 28.482,18.879 45.577,18.879l113.954,-0c17.095,-0 33.489,-6.791 45.577,-18.879c12.088,-12.088 18.879,-28.483 18.879,-45.577l-0,-113.954Z" style="fill:#1d9cd4;"/><path d="M377.607,752.525c-0,-17.095 -6.791,-33.489 -18.879,-45.577c-12.088,-12.088 -28.482,-18.879 -45.577,-18.879c-35.227,0 -78.727,0 -113.954,0c-17.095,0 -33.489,6.791 -45.577,18.879c-12.088,12.088 -18.879,28.482 -18.879,45.577l0,113.954c0,17.094 6.791,33.489 18.879,45.577c12.088,12.088 28.482,18.879 45.577,18.879l113.954,-0c17.095,-0 33.489,-6.791 45.577,-18.879c12.088,-12.088 18.879,-28.483 18.879,-45.577l-0,-113.954Z" style="fill:#12398c;"/><path d="M661.433,752.525c-0,-17.095 -6.791,-33.489 -18.879,-45.577c-12.088,-12.088 -28.482,-18.879 -45.577,-18.879c-35.227,0 -78.727,0 -113.954,0c-17.095,0 -33.489,6.791 -45.577,18.879c-12.088,12.088 -18.879,28.482 -18.879,45.577l0,113.954c0,17.094 6.791,33.489 18.879,45.577c12.088,12.088 28.482,18.879 45.577,18.879l113.954,-0c17.095,-0 33.489,-6.791 45.577,-18.879c12.088,-12.088 18.879,-28.483 18.879,-45.577l-0,-113.954Z" style="fill:#fff;stroke:#12398c;stroke-width:1.86px;"/><g><path d="M530.736,763.974l6.66,6.661c-10.99,8.825 -18.115,22.954 -18.115,38.867c0,15.912 7.125,30.042 18.115,38.867l-6.66,6.66c-12.681,-10.582 -20.835,-27.047 -20.835,-45.527c-0,-18.48 8.154,-34.946 20.835,-45.528Z" style="fill:#1d9cd4;"/><path d="M543.625,863.013c-4.627,2.713 -10.014,4.269 -15.761,4.269l-47.602,-0l0,-40.616c0,-6.885 -5.589,-12.474 -12.474,-12.474c0,0 0,-9.38 0,-9.38c6.885,-0 12.474,-5.59 12.474,-12.475l0,-40.615l47.602,-0l0.101,0c5.71,0.019 11.061,1.572 15.66,4.268c6.314,-2.751 13.224,-4.268 20.463,-4.268c18.578,-0 34.985,9.991 44.75,25.205l-6.817,6.817c-7.937,-13.6 -21.965,-22.642 -37.933,-22.642c-4.248,0 -8.36,0.641 -12.255,1.836c4.535,5.422 7.266,12.404 7.266,20.019c-0,11.2 -5.908,21.031 -14.775,26.545c8.867,5.513 14.775,15.344 14.775,26.545c-0,7.614 -2.731,14.596 -7.266,20.018c3.896,1.196 8.007,1.836 12.255,1.836c18.317,0 34.082,-11.898 41.027,-28.927l7.097,7.096c-9.027,18.536 -27.198,31.212 -48.124,31.212c-7.239,-0 -14.149,-1.517 -20.463,-4.269Zm-53.982,-5.112l-0,-31.235c-0,-6.958 -3.259,-13.162 -8.332,-17.164c5.073,-4.003 8.332,-10.206 8.332,-17.165l-0,-31.235l38.221,0c12.061,0 21.854,9.793 21.854,21.855c0,12.062 -9.793,21.855 -21.854,21.855l-0,9.38c12.061,0 21.854,9.793 21.854,21.855c0,12.037 -9.753,21.815 -21.784,21.854l-0.07,0l-38.221,0Z" style="fill:#12398c;"/></g><g><path d="M814.561,763.974l6.661,6.661c-10.99,8.825 -18.115,22.954 -18.115,38.867c0,15.912 7.125,30.042 18.115,38.867l-6.661,6.66c-12.68,-10.582 -20.834,-27.047 -20.834,-45.527c-0,-18.48 8.154,-34.946 20.834,-45.528Z" style="fill:#fff;"/><path d="M827.451,863.013c-4.627,2.713 -10.014,4.269 -15.762,4.269l-47.601,-0l0,-40.616c0,-6.885 -5.589,-12.474 -12.474,-12.474c0,0 0,-9.38 0,-9.38c6.885,-0 12.474,-5.59 12.474,-12.475l0,-40.615l47.601,-0l0.101,0c5.711,0.019 11.062,1.572 15.661,4.268c6.314,-2.751 13.224,-4.268 20.463,-4.268c18.578,-0 34.985,9.991 44.75,25.205l-6.817,6.817c-7.937,-13.6 -21.965,-22.642 -37.933,-22.642c-4.249,0 -8.36,0.641 -12.255,1.836c4.535,5.422 7.266,12.404 7.266,20.019c-0,11.2 -5.908,21.031 -14.775,26.545c8.867,5.513 14.775,15.344 14.775,26.545c-0,7.614 -2.731,14.596 -7.266,20.018c3.896,1.196 8.007,1.836 12.255,1.836c18.317,0 34.082,-11.898 41.027,-28.927l7.097,7.096c-9.027,18.536 -27.198,31.212 -48.124,31.212c-7.239,-0 -14.149,-1.517 -20.463,-4.269Zm-53.982,-5.112l-0,-31.235c-0,-6.958 -3.259,-13.162 -8.332,-17.164c5.073,-4.003 8.332,-10.206 8.332,-17.165l-0,-31.235l38.22,0c12.062,0 21.855,9.793 21.855,21.855c0,12.062 -9.793,21.855 -21.855,21.855l0,9.38c12.062,0 21.855,9.793 21.855,21.855c0,12.037 -9.754,21.815 -21.784,21.854l-0.071,0l-38.22,0Z" style="fill:#12398c;"/></g><g><path d="M246.91,763.974l6.66,6.661c-10.99,8.825 -18.115,22.954 -18.115,38.867c0,15.912 7.125,30.042 18.115,38.867l-6.66,6.66c-12.681,-10.582 -20.835,-27.047 -20.835,-45.527c-0,-18.48 8.154,-34.946 20.835,-45.528Z" style="fill:#1d9cd4;"/><path d="M259.8,863.013c-4.628,2.713 -10.015,4.269 -15.762,4.269l-47.601,-0l-0,-40.616c-0,-6.885 -5.59,-12.474 -12.475,-12.474c0,0 0,-9.38 0,-9.38c6.885,-0 12.475,-5.59 12.475,-12.475l-0,-40.615l47.601,-0l0.101,0c5.71,0.019 11.061,1.572 15.66,4.268c6.314,-2.751 13.224,-4.268 20.463,-4.268c18.578,-0 34.985,9.991 44.75,25.205l-6.817,6.817c-7.937,-13.6 -21.965,-22.642 -37.933,-22.642c-4.248,0 -8.36,0.641 -12.255,1.836c4.535,5.422 7.266,12.404 7.266,20.019c-0,11.2 -5.908,21.031 -14.775,26.545c8.867,5.513 14.775,15.344 14.775,26.545c-0,7.614 -2.731,14.596 -7.266,20.018c3.896,1.196 8.007,1.836 12.255,1.836c18.318,0 34.082,-11.898 41.028,-28.927l7.096,7.096c-9.027,18.536 -27.198,31.212 -48.124,31.212c-7.239,-0 -14.149,-1.517 -20.462,-4.269Zm-53.983,-5.112l0,-31.235c0,-6.958 -3.259,-13.162 -8.332,-17.164c5.073,-4.003 8.332,-10.206 8.332,-17.165l0,-31.235l38.221,0c12.062,0 21.854,9.793 21.854,21.855c0,12.062 -9.792,21.855 -21.854,21.855l-0,9.38c12.062,0 21.854,9.793 21.854,21.855c0,12.037 -9.753,21.815 -21.784,21.854l-0.07,0l-38.221,0Z" style="fill:#fff;"/></g></g></svg>