<svg xmlns="http://www.w3.org/2000/svg" viewBox="134 688 244 244" fill="none" role="img" aria-label="Banua Coder">
  <!-- Deep-blue rounded-square plate -->
  <path d="M377.607,752.525c-0,-17.095 -6.791,-33.489 -18.879,-45.577c-12.088,-12.088 -28.482,-18.879 -45.577,-18.879c-35.227,0 -78.727,0 -113.954,0c-17.095,0 -33.489,6.791 -45.577,18.879c-12.088,12.088 -18.879,28.482 -18.879,45.577l0,113.954c0,17.094 6.791,33.489 18.879,45.577c12.088,12.088 28.482,18.879 45.577,18.879l113.954,-0c17.095,-0 33.489,-6.791 45.577,-18.879c12.088,-12.088 18.879,-28.483 18.879,-45.577l-0,-113.954Z" fill="#12398c"/>
  <!-- Cyan swoosh (simplified, visible at small sizes) -->
  <path d="M246.91,763.974l6.66,6.661c-10.99,8.825 -18.115,22.954 -18.115,38.867c0,15.912 7.125,30.042 18.115,38.867l-6.66,6.66c-12.681,-10.582 -20.835,-27.047 -20.835,-45.527c-0,-18.48 8.154,-34.946 20.835,-45.528Z" fill="#1d9cd4"/>
  <!-- White B letterform (simplified inner path only for legibility at small sizes) -->
  <path d="M205.817,857.901l0,-31.235c0,-6.958 -3.259,-13.162 -8.332,-17.164c5.073,-4.003 8.332,-10.206 8.332,-17.165l0,-31.235l38.221,0c12.062,0 21.854,9.793 21.854,21.855c0,12.062 -9.792,21.855 -21.854,21.855l-0,9.38c12.062,0 21.854,9.793 21.854,21.855c0,12.037 -9.753,21.815 -21.784,21.854l-0.07,0l-38.221,0Z" fill="#ffffff"/>
</svg>
