<svg xmlns="http://www.w3.org/2000/svg" viewBox="75 120 395 75" fill="none" role="img" aria-label="Banua Coder">
  <!-- BC monogram: cyan swoosh + blue B letterform -->
  <path d="M115.268,131.746l2.832,2.832c-4.673,3.751 -7.702,9.759 -7.702,16.524c0,6.765 3.029,12.772 7.702,16.524l-2.832,2.832c-5.391,-4.499 -8.858,-11.499 -8.858,-19.356c-0,-7.857 3.467,-14.857 8.858,-19.356Z" fill="#1d9cd4"/>
  <path d="M120.748,173.852c-1.967,1.154 -4.258,1.815 -6.701,1.815l-20.238,0l-0,-17.268c-0,-2.927 -2.376,-5.303 -5.303,-5.303c-0,-0 -0,-3.988 -0,-3.988c2.927,-0 5.303,-2.377 5.303,-5.304l-0,-17.267l20.238,-0l0.043,-0c2.427,0.007 4.702,0.668 6.658,1.814c2.684,-1.169 5.622,-1.814 8.7,-1.814c7.898,-0 14.874,4.247 19.025,10.715l-2.898,2.899c-3.374,-5.782 -9.338,-9.626 -16.127,-9.626c-1.807,-0 -3.554,0.272 -5.211,0.78c1.928,2.305 3.089,5.274 3.089,8.511c0,4.762 -2.511,8.942 -6.281,11.286c3.77,2.344 6.281,6.524 6.281,11.286c0,3.237 -1.16,6.205 -3.089,8.511c1.657,0.508 3.405,0.78 5.211,0.78c7.787,0 14.49,-5.059 17.443,-12.299l3.017,3.017c-3.838,7.881 -11.564,13.27 -20.46,13.27c-3.078,0 -6.016,-0.645 -8.7,-1.815Zm-22.951,-2.173l0,-13.28c0,-2.958 -1.385,-5.595 -3.542,-7.297c2.157,-1.702 3.542,-4.339 3.542,-7.298l0,-13.279l16.25,-0c5.128,-0 9.291,4.163 9.291,9.291c0,5.128 -4.163,9.292 -9.291,9.292l-0,3.988c5.128,-0 9.291,4.163 9.291,9.292c0,5.117 -4.146,9.274 -9.261,9.291l-0.03,0l-16.25,0Z" fill="#12398c"/>
  <!-- Wordmark: "Banua" in blue, "Coder" in cyan -->
  <path d="M190.936,158.021c0,-3.377 -1.612,-5.743 -4.838,-7.1c2.713,-1.447 4.07,-3.693 4.07,-6.738c-0,-2.683 -1.071,-4.959 -3.211,-6.828c-2.05,-1.688 -4.431,-2.532 -7.145,-2.532l-13.927,-0l-0,32.603l14.696,0c2.683,0 5.08,-0.874 7.19,-2.622c1.085,-0.905 1.884,-1.915 2.397,-3.03c0.512,-1.116 0.768,-2.367 0.768,-3.753Zm-4.883,-0c-0,1.386 -0.573,2.472 -1.719,3.255c-1.055,0.814 -2.306,1.221 -3.753,1.221l-9.813,0l0,-8.953l9.813,-0c1.447,-0 2.698,0.407 3.753,1.221c1.146,0.844 1.719,1.929 1.719,3.256Zm-0.814,-13.838c-0,1.327 -0.558,2.412 -1.673,3.256c-1.086,0.814 -2.337,1.221 -3.754,1.221l-9.044,-0l0,-8.954l9.044,0c1.417,0 2.668,0.407 3.754,1.221c1.115,0.844 1.673,1.93 1.673,3.256Z" fill="#12398c" fill-rule="nonzero"/>
  <path d="M221.686,167.426l0,-24.69l-4.929,0l0,3.346c-2.412,-2.773 -5.411,-4.16 -8.999,-4.16c-1.748,0 -3.369,0.324 -4.861,0.972c-1.492,0.649 -2.811,1.651 -3.957,3.008c-2.351,2.532 -3.527,5.592 -3.527,9.179c0,3.558 1.161,6.602 3.482,9.135c2.352,2.653 5.306,3.979 8.863,3.979c3.648,0 6.648,-1.387 8.999,-4.16l0,3.391l4.929,0Zm-4.929,-12.345c0,2.291 -0.799,4.236 -2.397,5.834c-1.597,1.597 -3.542,2.396 -5.833,2.396c-2.291,0 -4.236,-0.799 -5.833,-2.396c-1.598,-1.598 -2.397,-3.543 -2.397,-5.834c-0,-2.291 0.799,-4.235 2.397,-5.833c1.597,-1.598 3.542,-2.397 5.833,-2.397c2.291,0 4.236,0.799 5.833,2.397c1.598,1.598 2.397,3.542 2.397,5.833Z" fill="#12398c" fill-rule="nonzero"/>
  <path d="M249.089,167.426l0,-14.741c0,-2.895 -0.934,-5.367 -2.803,-7.417c-1.899,-2.23 -4.296,-3.346 -7.19,-3.346c-2.623,0 -4.839,0.92 -6.648,2.759l0,-1.945l-4.883,0l-0,24.69l4.883,0l0,-14.741c0,-1.628 0.573,-3.015 1.719,-4.161c1.115,-1.115 2.502,-1.673 4.16,-1.673c1.598,0 2.985,0.558 4.16,1.673c1.116,1.176 1.673,2.563 1.673,4.161l0,14.741l4.929,0Z" fill="#12398c" fill-rule="nonzero"/>
  <path d="M275.679,167.426l-0,-24.69l-4.929,0l-0,14.697c-0,1.597 -0.558,2.984 -1.673,4.16c-0.573,0.543 -1.206,0.965 -1.9,1.266c-0.693,0.302 -1.447,0.452 -2.261,0.452c-0.814,0 -1.567,-0.15 -2.261,-0.452c-0.693,-0.301 -1.326,-0.723 -1.899,-1.266c-0.542,-0.573 -0.964,-1.206 -1.266,-1.899c-0.301,-0.694 -0.452,-1.447 -0.452,-2.261l-0,-14.697l-4.884,0l0,14.697c0,2.864 0.92,5.351 2.758,7.461c1.93,2.201 4.327,3.301 7.19,3.301c2.563,0 4.779,-0.904 6.648,-2.713l-0,1.944l4.929,0Z" fill="#12398c" fill-rule="nonzero"/>
  <path d="M306.835,167.426l0,-24.69l-4.929,0l0,3.346c-2.411,-2.773 -5.411,-4.16 -8.998,-4.16c-1.749,0 -3.369,0.324 -4.861,0.972c-1.493,0.649 -2.812,1.651 -3.957,3.008c-2.352,2.532 -3.527,5.592 -3.527,9.179c-0,3.558 1.16,6.602 3.482,9.135c2.351,2.653 5.305,3.979 8.863,3.979c3.647,0 6.647,-1.387 8.998,-4.16l0,3.391l4.929,0Zm-4.929,-12.345c0,2.291 -0.798,4.236 -2.396,5.834c-1.598,1.597 -3.542,2.396 -5.834,2.396c-2.291,0 -4.235,-0.799 -5.833,-2.396c-1.598,-1.598 -2.397,-3.543 -2.397,-5.834c0,-2.291 0.799,-4.235 2.397,-5.833c1.598,-1.598 3.542,-2.397 5.833,-2.397c2.292,0 4.236,0.799 5.834,2.397c1.598,1.598 2.396,3.542 2.396,5.833Z" fill="#12398c" fill-rule="nonzero"/>
  <path d="M340.886,162.497l-3.165,-3.029c-2.623,2.562 -5.592,3.843 -8.909,3.843c-3.316,0 -6.195,-1.19 -8.637,-3.572c-2.381,-2.442 -3.572,-5.321 -3.572,-8.637c-0,-3.316 1.191,-6.195 3.572,-8.637c2.382,-2.352 5.261,-3.527 8.637,-3.527c3.347,-0 6.316,1.266 8.909,3.798l3.527,-3.346c-3.588,-3.588 -7.733,-5.381 -12.436,-5.381c-4.672,-0 -8.697,1.688 -12.073,5.064c-3.347,3.347 -5.02,7.356 -5.02,12.029c0,4.673 1.658,8.712 4.974,12.119c3.377,3.316 7.417,4.974 12.119,4.974c4.643,0 8.668,-1.673 12.074,-5.019l0,-0.679Z" fill="#1d9cd4" fill-rule="nonzero"/>
  <path d="M371.771,155.081c0,-3.587 -1.296,-6.677 -3.888,-9.27c-2.593,-2.592 -5.683,-3.889 -9.271,-3.889c-3.587,0 -6.662,1.297 -9.224,3.889c-2.593,2.593 -3.889,5.683 -3.889,9.27c-0,3.588 1.296,6.663 3.889,9.225c2.562,2.593 5.637,3.889 9.224,3.889c3.588,0 6.678,-1.296 9.271,-3.889c2.592,-2.562 3.888,-5.637 3.888,-9.225Zm-4.929,0c0,2.291 -0.798,4.236 -2.396,5.834c-1.598,1.597 -3.542,2.396 -5.834,2.396c-2.291,0 -4.235,-0.799 -5.833,-2.396c-1.598,-1.598 -2.397,-3.543 -2.397,-5.834c0,-2.291 0.799,-4.235 2.397,-5.833c1.598,-1.598 3.542,-2.397 5.833,-2.397c2.292,0 4.236,0.799 5.834,2.397c1.598,1.598 2.396,3.542 2.396,5.833Z" fill="#1d9cd4" fill-rule="nonzero"/>
  <path d="M401.933,167.426l0,-32.603l-4.929,-0l0,11.259c-2.411,-2.773 -5.411,-4.16 -8.999,-4.16c-1.748,0 -3.368,0.324 -4.861,0.972c-1.492,0.649 -2.811,1.651 -3.956,3.008c-2.352,2.532 -3.528,5.592 -3.528,9.179c0,3.558 1.161,6.602 3.482,9.135c2.352,2.653 5.306,3.979 8.863,3.979c3.648,0 6.648,-1.387 8.999,-4.16l0,3.391l4.929,0Zm-4.929,-12.345c0,2.291 -0.799,4.236 -2.396,5.834c-1.598,1.597 -3.543,2.396 -5.834,2.396c-2.291,0 -4.235,-0.799 -5.833,-2.396c-1.598,-1.598 -2.397,-3.543 -2.397,-5.834c0,-2.291 0.799,-4.235 2.397,-5.833c1.598,-1.598 3.542,-2.397 5.833,-2.397c2.291,0 4.236,0.799 5.834,2.397c1.597,1.598 2.396,3.542 2.396,5.833Z" fill="#1d9cd4" fill-rule="nonzero"/>
  <path d="M433.09,155.081c-0,-3.587 -1.296,-6.677 -3.889,-9.27c-2.593,-2.592 -5.683,-3.889 -9.27,-3.889c-3.588,0 -6.663,1.297 -9.225,3.889c-2.593,2.593 -3.889,5.683 -3.889,9.27c-0,3.588 1.296,6.663 3.889,9.225c2.562,2.593 5.637,3.889 9.225,3.889c2.05,0 4.017,-0.49 5.901,-1.47c1.884,-0.979 3.49,-2.343 4.816,-4.092l-4.115,-2.668c-1.809,2.231 -4.01,3.346 -6.602,3.346c-1.869,0 -3.573,-0.603 -5.11,-1.809c-1.327,-1.055 -2.231,-2.381 -2.713,-3.979l20.756,0c0.06,-0.512 0.113,-0.965 0.158,-1.356c0.045,-0.392 0.068,-0.754 0.068,-1.086Zm-18.269,-6.466c1.537,-1.176 3.241,-1.764 5.11,-1.764c1.959,0 3.663,0.588 5.11,1.764c1.296,0.995 2.215,2.321 2.758,3.979l-15.691,0c0.482,-1.567 1.386,-2.894 2.713,-3.979Z" fill="#1d9cd4" fill-rule="nonzero"/>
  <path d="M451.494,146.806l0,-4.703c-0.422,-0.06 -0.798,-0.105 -1.13,-0.136c-0.332,-0.03 -0.618,-0.045 -0.859,-0.045c-2.623,0 -4.839,0.92 -6.648,2.759l0,-1.945l-4.883,0l-0,24.69l4.883,0l0,-14.741c0,-1.628 0.573,-3.015 1.719,-4.161c1.115,-1.115 2.502,-1.673 4.16,-1.673c0.693,0 1.402,0.121 2.125,0.362l0.633,-0.407Z" fill="#1d9cd4" fill-rule="nonzero"/>
</svg>
