<svg xmlns="http://www.w3.org/2000/svg" viewBox="690 378 240 115" fill="none" role="img" aria-label="Banua Coder">
  <!-- BC monogram icon: cyan swoosh + blue B letterform (light variant) -->
  <path d="M805.799,395.139l3.02,3.021c-4.984,4.002 -8.215,10.409 -8.215,17.626c0,7.216 3.231,13.623 8.215,17.625l-3.02,3.021c-5.751,-4.799 -9.449,-12.266 -9.449,-20.646c0,-8.381 3.698,-15.848 9.449,-20.647Z" fill="#1d9cd4"/>
  <path d="M811.644,440.053c-2.098,1.23 -4.541,1.935 -7.148,1.935l-21.586,0l-0,-18.419c-0,-3.122 -2.535,-5.656 -5.657,-5.656c-0,-0 -0,-4.254 -0,-4.254c3.122,-0 5.657,-2.535 5.657,-5.657l-0,-18.419l21.586,0l0.046,0c2.59,0.009 5.016,0.713 7.102,1.936c2.863,-1.248 5.997,-1.936 9.28,-1.936c8.425,0 15.865,4.531 20.293,11.43l-3.091,3.092c-3.599,-6.168 -9.961,-10.268 -17.202,-10.268c-1.927,0 -3.791,0.29 -5.558,0.833c2.057,2.458 3.295,5.625 3.295,9.078c0,5.079 -2.679,9.537 -6.7,12.038c4.021,2.5 6.7,6.958 6.7,12.037c0,3.454 -1.238,6.62 -3.295,9.079c1.767,0.542 3.631,0.832 5.558,0.832c8.306,0 15.456,-5.395 18.605,-13.118l3.218,3.218c-4.093,8.406 -12.334,14.154 -21.823,14.154c-3.283,0 -6.417,-0.688 -9.28,-1.935Zm-24.48,-2.319l-0,-14.165c-0,-3.155 -1.478,-5.968 -3.779,-7.783c2.301,-1.815 3.779,-4.629 3.779,-7.784l-0,-14.165l17.332,0c5.47,0 9.911,4.441 9.911,9.911c0,5.47 -4.441,9.911 -9.911,9.911l0,4.254c5.47,-0 9.911,4.441 9.911,9.91c0,5.459 -4.423,9.894 -9.879,9.911l-0.032,0l-17.332,0Z" fill="#12398c"/>
  <!-- Wordmark "Banua" blue + "Coder" cyan, stacked below icon -->
  <path d="M721.635,477.189c0,-2.534 -1.21,-4.309 -3.631,-5.327c2.036,-1.086 3.054,-2.772 3.054,-5.057c0,-2.013 -0.803,-3.721 -2.409,-5.124c-1.538,-1.267 -3.326,-1.9 -5.362,-1.9l-10.451,-0l-0,24.467l11.028,-0c2.014,-0 3.812,-0.656 5.396,-1.969c0.814,-0.678 1.414,-1.436 1.798,-2.273c0.385,-0.837 0.577,-1.776 0.577,-2.817Zm-3.665,0c0,1.041 -0.43,1.855 -1.289,2.444c-0.792,0.61 -1.731,0.916 -2.817,0.916l-7.364,-0l0,-6.719l7.364,-0c1.086,-0 2.025,0.305 2.817,0.916c0.859,0.633 1.289,1.448 1.289,2.443Zm-0.611,-10.384c0,0.996 -0.418,1.81 -1.255,2.444c-0.815,0.61 -1.753,0.916 -2.817,0.916l-6.787,-0l0,-6.719l6.787,-0c1.064,-0 2.002,0.305 2.817,0.916c0.837,0.634 1.255,1.448 1.255,2.443Z" fill="#12398c" fill-rule="nonzero"/>
  <path d="M744.71,484.248l0,-18.529l-3.698,0l-0,2.512c-1.81,-2.082 -4.061,-3.122 -6.753,-3.122c-1.312,-0 -2.528,0.243 -3.648,0.729c-1.12,0.487 -2.11,1.239 -2.969,2.257c-1.765,1.9 -2.647,4.196 -2.647,6.889c-0,2.669 0.871,4.954 2.613,6.854c1.764,1.991 3.981,2.986 6.651,2.986c2.737,0 4.988,-1.04 6.753,-3.121l-0,2.545l3.698,-0Zm-3.698,-9.264c-0,1.719 -0.6,3.178 -1.799,4.377c-1.199,1.199 -2.658,1.799 -4.377,1.799c-1.72,-0 -3.179,-0.6 -4.378,-1.799c-1.199,-1.199 -1.798,-2.658 -1.798,-4.377c-0,-1.72 0.599,-3.179 1.798,-4.378c1.199,-1.199 2.658,-1.799 4.378,-1.799c1.719,0 3.178,0.6 4.377,1.799c1.199,1.199 1.799,2.658 1.799,4.378Z" fill="#12398c" fill-rule="nonzero"/>
  <path d="M765.275,484.248l-0,-11.063c-0,-2.172 -0.702,-4.027 -2.104,-5.565c-1.426,-1.674 -3.224,-2.511 -5.396,-2.511c-1.968,-0 -3.631,0.69 -4.988,2.07l-0,-1.46l-3.665,0l-0,18.529l3.665,-0l-0,-11.063c-0,-1.222 0.43,-2.262 1.289,-3.122c0.837,-0.837 1.878,-1.256 3.122,-1.256c1.199,0 2.24,0.419 3.122,1.256c0.837,0.882 1.256,1.923 1.256,3.122l-0,11.063l3.699,-0Z" fill="#12398c" fill-rule="nonzero"/>
  <path d="M785.228,484.248l-0,-18.529l-3.699,0l0,11.029c0,1.199 -0.418,2.24 -1.255,3.122c-0.43,0.407 -0.905,0.724 -1.426,0.95c-0.52,0.226 -1.086,0.34 -1.696,0.34c-0.611,-0 -1.177,-0.114 -1.697,-0.34c-0.52,-0.226 -0.995,-0.543 -1.425,-0.95c-0.408,-0.43 -0.724,-0.905 -0.95,-1.425c-0.227,-0.521 -0.34,-1.086 -0.34,-1.697l0,-11.029l-3.665,0l0,11.029c0,2.149 0.69,4.016 2.07,5.599c1.448,1.652 3.247,2.477 5.396,2.477c1.923,0 3.586,-0.678 4.988,-2.036l0,1.46l3.699,-0Z" fill="#12398c" fill-rule="nonzero"/>
  <path d="M808.609,484.248l-0,-18.529l-3.699,0l-0,2.512c-1.81,-2.082 -4.061,-3.122 -6.753,-3.122c-1.312,-0 -2.528,0.243 -3.648,0.729c-1.12,0.487 -2.11,1.239 -2.969,2.257c-1.765,1.9 -2.647,4.196 -2.647,6.889c-0,2.669 0.871,4.954 2.613,6.854c1.764,1.991 3.981,2.986 6.651,2.986c2.737,0 4.988,-1.04 6.753,-3.121l-0,2.545l3.699,-0Zm-3.699,-9.264c-0,1.719 -0.6,3.178 -1.799,4.377c-1.199,1.199 -2.658,1.799 -4.377,1.799c-1.72,-0 -3.179,-0.6 -4.378,-1.799c-1.199,-1.199 -1.798,-2.658 -1.798,-4.377c-0,-1.72 0.599,-3.179 1.798,-4.378c1.199,-1.199 2.658,-1.799 4.378,-1.799c1.719,0 3.178,0.6 4.377,1.799c1.199,1.199 1.799,2.658 1.799,4.378Z" fill="#12398c" fill-rule="nonzero"/>
  <path d="M834.161,480.549l-2.375,-2.274c-1.968,1.923 -4.197,2.885 -6.685,2.885c-2.489,-0 -4.649,-0.894 -6.482,-2.681c-1.787,-1.833 -2.681,-3.993 -2.681,-6.482c0,-2.488 0.894,-4.649 2.681,-6.481c1.788,-1.765 3.948,-2.647 6.482,-2.647c2.511,-0 4.739,0.95 6.685,2.85l2.647,-2.511c-2.692,-2.692 -5.803,-4.038 -9.332,-4.038c-3.507,0 -6.527,1.267 -9.061,3.801c-2.511,2.511 -3.766,5.52 -3.766,9.026c-0,3.507 1.244,6.538 3.732,9.095c2.534,2.488 5.566,3.732 9.095,3.732c3.484,0 6.504,-1.255 9.06,-3.766l0,-0.509Z" fill="#1d9cd4" fill-rule="nonzero"/>
  <path d="M857.338,474.984c0,-2.693 -0.972,-5.011 -2.918,-6.957c-1.946,-1.946 -4.264,-2.918 -6.957,-2.918c-2.692,-0 -4.999,0.972 -6.922,2.918c-1.946,1.946 -2.919,4.264 -2.919,6.957c0,2.692 0.973,4.999 2.919,6.922c1.923,1.946 4.23,2.918 6.922,2.918c2.693,0 5.011,-0.972 6.957,-2.918c1.946,-1.923 2.918,-4.23 2.918,-6.922Zm-3.699,-0c0,1.719 -0.599,3.178 -1.798,4.377c-1.199,1.199 -2.658,1.799 -4.378,1.799c-1.719,-0 -3.178,-0.6 -4.377,-1.799c-1.199,-1.199 -1.799,-2.658 -1.799,-4.377c0,-1.72 0.6,-3.179 1.799,-4.378c1.199,-1.199 2.658,-1.799 4.377,-1.799c1.72,0 3.179,0.6 4.378,1.799c1.199,1.199 1.798,2.658 1.798,4.378Z" fill="#1d9cd4" fill-rule="nonzero"/>
  <path d="M879.972,484.248l0,-24.467l-3.698,-0l-0,8.45c-1.81,-2.082 -4.061,-3.122 -6.753,-3.122c-1.312,-0 -2.528,0.243 -3.648,0.729c-1.12,0.487 -2.11,1.239 -2.969,2.257c-1.765,1.9 -2.647,4.196 -2.647,6.889c-0,2.669 0.871,4.954 2.613,6.854c1.764,1.991 3.981,2.986 6.651,2.986c2.737,0 4.988,-1.04 6.753,-3.121l-0,2.545l3.698,-0Zm-3.698,-9.264c-0,1.719 -0.6,3.178 -1.799,4.377c-1.199,1.199 -2.658,1.799 -4.377,1.799c-1.72,-0 -3.179,-0.6 -4.378,-1.799c-1.199,-1.199 -1.798,-2.658 -1.798,-4.377c-0,-1.72 0.599,-3.179 1.798,-4.378c1.199,-1.199 2.658,-1.799 4.378,-1.799c1.719,0 3.178,0.6 4.377,1.799c1.199,1.199 1.799,2.658 1.799,4.378Z" fill="#1d9cd4" fill-rule="nonzero"/>
  <path d="M903.353,474.984c0,-2.693 -0.973,-5.011 -2.918,-6.957c-1.946,-1.946 -4.265,-2.918 -6.957,-2.918c-2.692,-0 -4.999,0.972 -6.922,2.918c-1.946,1.946 -2.919,4.264 -2.919,6.957c0,2.692 0.973,4.999 2.919,6.922c1.923,1.946 4.23,2.918 6.922,2.918c1.539,0 3.015,-0.367 4.429,-1.102c1.414,-0.736 2.618,-1.759 3.614,-3.071l-3.088,-2.003c-1.358,1.675 -3.009,2.512 -4.955,2.512c-1.402,-0 -2.681,-0.453 -3.834,-1.358c-0.996,-0.792 -1.674,-1.787 -2.036,-2.986l15.575,-0c0.046,-0.385 0.085,-0.724 0.119,-1.018c0.034,-0.294 0.051,-0.566 0.051,-0.814Zm-13.709,-4.853c1.153,-0.882 2.432,-1.324 3.834,-1.324c1.471,0 2.749,0.442 3.835,1.324c0.973,0.746 1.663,1.742 2.07,2.986l-11.775,0c0.362,-1.176 1.04,-2.172 2.036,-2.986Z" fill="#1d9cd4" fill-rule="nonzero"/>
  <path d="M917.164,468.774l0,-3.53c-0.316,-0.045 -0.599,-0.079 -0.848,-0.101c-0.249,-0.023 -0.464,-0.034 -0.645,-0.034c-1.968,-0 -3.631,0.69 -4.988,2.07l-0,-1.46l-3.665,0l0,18.529l3.665,-0l-0,-11.063c-0,-1.222 0.43,-2.262 1.289,-3.122c0.838,-0.837 1.878,-1.256 3.122,-1.256c0.521,0 1.052,0.091 1.595,0.272l0.475,-0.305Z" fill="#1d9cd4" fill-rule="nonzero"/>
</svg>
